<svg width="32" height="32" viewBox="0 0 32 32" fill="none" xmlns="http://www.w3.org/2000/svg">
<g clip-path="url(#clip0_3664_2482)">
<rect width="32" height="32" rx="4" fill="#DAFF99"/>
<path d="M15.736 9.07175C15.8492 8.8828 16.123 8.8828 16.2362 9.07175L18.9703 13.6355C18.9949 13.6766 19.0293 13.711 19.0705 13.7357L23.6322 16.4714C23.821 16.5846 23.821 16.8582 23.6322 16.9715L19.0705 19.7072C19.0293 19.7318 18.9949 19.7662 18.9703 19.8074L16.2362 24.3711C16.123 24.5601 15.8492 24.5601 15.736 24.3711L13.0019 19.8074C12.9772 19.7662 12.9428 19.7318 12.9017 19.7072L8.34001 16.9715C8.15121 16.8582 8.15121 16.5846 8.34001 16.4714L12.9017 13.7357C12.9428 13.711 12.9772 13.6766 13.0019 13.6355L15.736 9.07175Z" fill="#2D2D2D"/>
<g filter="url(#filter0_d_3664_2482)">
<path d="M23.8321 7.41198C23.8604 7.36474 23.9288 7.36474 23.9571 7.41198L24.815 8.84391C24.8212 8.85419 24.8298 8.86279 24.84 8.86896L26.2713 9.72731C26.3185 9.75561 26.3185 9.82401 26.2713 9.85232L24.84 10.7107C24.8298 10.7168 24.8212 10.7254 24.815 10.7357L23.9571 12.1676C23.9288 12.2149 23.8604 12.2149 23.8321 12.1676L22.9742 10.7357C22.9681 10.7254 22.9595 10.7168 22.9492 10.7107L21.5179 9.85232C21.4707 9.82401 21.4707 9.75561 21.5179 9.72731L22.9492 8.86896C22.9595 8.86279 22.9681 8.85419 22.9742 8.84391L23.8321 7.41198Z" fill="#2D2D2D"/>
</g>
</g>
<defs>
<filter id="filter0_d_3664_2482" x="-56.5175" y="-70.623" width="160.824" height="160.826" filterUnits="userSpaceOnUse" color-interpolation-filters="sRGB">
<feFlood flood-opacity="0" result="BackgroundImageFix"/>
<feColorMatrix in="SourceAlpha" type="matrix" values="0 0 0 0 0 0 0 0 0 0 0 0 0 0 0 0 0 0 127 0" result="hardAlpha"/>
<feOffset/>
<feGaussianBlur stdDeviation="39"/>
<feComposite in2="hardAlpha" operator="out"/>
<feColorMatrix type="matrix" values="0 0 0 0 1 0 0 0 0 1 0 0 0 0 1 0 0 0 1 0"/>
<feBlend mode="normal" in2="BackgroundImageFix" result="effect1_dropShadow_3664_2482"/>
<feBlend mode="normal" in="SourceGraphic" in2="effect1_dropShadow_3664_2482" result="shape"/>
</filter>
<clipPath id="clip0_3664_2482">
<rect width="32" height="32" rx="4" fill="white"/>
</clipPath>
</defs>
</svg>
