<svg width="46" height="46" viewBox="0 0 46 46" fill="none" xmlns="http://www.w3.org/2000/svg">
<g clip-path="url(#clip0_1993_857)">
<path d="M0 6C0 2.5 2.5 0 6 0H40C43.5 0 46 2.5 46 6V40C46 43.5 43.5 46 40 46C36.5 46 6 46 6 46C2.5 46 0 43.5 0 40V6Z" fill="url(#paint0_radial_1993_857)"/>
<path d="M37.1921 24.4673C36.3173 24.4276 26.9327 24.4276 26.0579 24.4673C25.1831 24.5071 24.5071 25.1831 24.4673 26.0579C24.4276 26.9327 24.4276 36.3173 24.4673 37.1921C24.5071 38.0669 25.1831 38.7429 26.0579 38.7827C26.9327 38.8224 36.3173 38.8224 37.1921 38.7827C38.0669 38.7429 38.7429 38.0669 38.7827 37.1921C38.8224 36.3173 38.8224 26.9327 38.7827 26.0579C38.7429 25.1831 38.0669 24.5071 37.1921 24.4673Z" fill="#F9F9FF"/>
<path d="M7.1875 25.2058C7.18745 24.6153 7.91356 24.2462 8.49451 24.5414L21.1268 30.9599C21.7077 31.2551 21.7078 31.9931 21.1269 32.2884L8.4957 38.7085C7.91483 39.0039 7.18866 38.6348 7.18861 38.0445L7.1875 25.2058Z" fill="#F9F9FF"/>
<path d="M14.375 21.5625C18.3446 21.5625 21.5625 18.3446 21.5625 14.375C21.5625 10.4054 18.3446 7.1875 14.375 7.1875C10.4054 7.1875 7.1875 10.4054 7.1875 14.375C7.1875 18.3446 10.4054 21.5625 14.375 21.5625Z" fill="#F9F9FF"/>
<path d="M25.875 7.1875C25.875 7.1875 35.9375 7.1875 37.375 7.1875C38.8125 7.1875 38.8125 8.625 38.8125 8.625C38.8125 8.625 38.8125 8.625 38.8125 10.0625C38.8125 11.5 37.375 11.5 37.375 11.5L33.7813 11.5V20.125C33.7813 20.125 33.7813 21.5625 32.3438 21.5625C30.9062 21.5625 32.3438 21.5625 30.9062 21.5625C29.4688 21.5625 29.4688 20.125 29.4688 20.125V11.5L25.875 11.5C25.875 11.5 24.4375 11.5 24.4375 10.0625C24.4375 8.625 24.4375 10.0625 24.4375 8.625C24.4375 7.1875 25.875 7.1875 25.875 7.1875Z" fill="#F9F9FF"/>
</g>
<defs>
<radialGradient id="paint0_radial_1993_857" cx="0" cy="0" r="1" gradientUnits="userSpaceOnUse" gradientTransform="translate(23) rotate(90) scale(46 46)">
<stop stop-color="#8278FA"/>
<stop offset="1" stop-color="#5E51F8"/>
</radialGradient>
<clipPath id="clip0_1993_857">
<rect width="46" height="46" fill="white"/>
</clipPath>
</defs>
</svg>
